<?xml version="1.0" encoding="utf-8"?>
<!-- Generator: Adobe Illustrator 27.5.0, SVG Export Plug-In . SVG Version: 6.00 Build 0)  -->
<svg version="1.1" xmlns="http://www.w3.org/2000/svg" xmlns:xlink="http://www.w3.org/1999/xlink" x="0px" y="0px"
	 viewBox="0 0 3710 3710" style="enable-background:new 0 0 3710 3710;" xml:space="preserve">
<g id="Background">
	<g>
		<g>
			<rect style="fill:#FFFFFF;" width="3710" height="3710"/>
		</g>
	</g>
</g>
<g id="Illustration">
	<g>
		<linearGradient id="SVGID_1_" gradientUnits="userSpaceOnUse" x1="3563.6731" y1="4022.4846" x2="1112.6835" y2="978.5092">
			<stop  offset="0" style="stop-color:#B37CFF"/>
			<stop  offset="1" style="stop-color:#F895E7"/>
		</linearGradient>
		<path style="opacity:0.3;fill:url(#SVGID_1_);" d="M2889.39,2822.051c-56.298,59.268-109.567,97.49-151.654,127.688
			c-494.721,354.968-1080.107,251.497-1204.519,226.228c-183.716-37.314-538.835-109.44-795.58-411.367
			c-388.434-456.79-327.949-1176.45-26.653-1651.507c55.112-86.896,346.227-569.19,937.919-646.534
			c358.085-46.808,775.498,47.598,1077.776,300.848C3361.188,1298.998,3316.018,2372.911,2889.39,2822.051z"/>
		<g>
			<g>
				
					<linearGradient id="SVGID_00000160192800070234757840000004450439475482767767_" gradientUnits="userSpaceOnUse" x1="1934.5221" y1="3299.2808" x2="1906.0972" y2="2736.4722">
					<stop  offset="0" style="stop-color:#2B3582"/>
					<stop  offset="1" style="stop-color:#150E42"/>
				</linearGradient>
				<polygon style="fill:url(#SVGID_00000160192800070234757840000004450439475482767767_);" points="1633.775,2663.537 
					1573.439,3079.915 2273.447,3079.915 2182.27,2663.537 				"/>
				
					<linearGradient id="SVGID_00000106835071420959557830000011834604662564853636_" gradientUnits="userSpaceOnUse" x1="457.886" y1="1992.1328" x2="3252.114" y2="1992.1328">
					<stop  offset="0" style="stop-color:#2B3582"/>
					<stop  offset="1" style="stop-color:#150E42"/>
				</linearGradient>
				<path style="fill:url(#SVGID_00000106835071420959557830000011834604662564853636_);" d="M457.886,1330.324v1239.314
					c0,101.95,81.242,185.321,183.158,187.949c452.658,11.672,2035.838,39.975,2466.737,33.623
					c74.061-1.092,134.056-60.358,136.193-134.395c8.309-287.91,21.803-980.236-28.135-1301.656
					c-10.517-67.688-67.651-118.303-136.116-120.493c-379.27-12.133-2057.544-50.66-2488.243-40.987
					C517.199,1195.347,457.886,1256.024,457.886,1330.324z"/>
				
					<linearGradient id="SVGID_00000049220749853773194130000006182290447301667515_" gradientUnits="userSpaceOnUse" x1="1873.5236" y1="1458.967" x2="1720.0583" y2="3949.2705">
					<stop  offset="0" style="stop-color:#FDF53F"/>
					<stop  offset="1" style="stop-color:#D93C65"/>
				</linearGradient>
				<path style="fill:url(#SVGID_00000049220749853773194130000006182290447301667515_);" d="M535.649,1324.291v1177.434
					c0,59.524,47.782,108.025,107.299,108.916l2402.841,29.686c59.007,0.882,107.375-46.591,107.595-105.605l4.02-1166.914
					c0.157-42.196-33.46-76.77-75.644-77.796l-2460.064-49.7C574.516,1239.164,535.649,1277.097,535.649,1324.291z"/>
				<path style="opacity:0.65;fill:#FFFFFF;" d="M3171.476,2688.936c-0.022,0-0.043,0-0.065,0l-2635.824-44.912
					c-2.035-0.036-3.656-1.713-3.622-3.746c0.036-2.037,1.799-3.699,3.747-3.623l2635.825,44.912
					c2.035,0.036,3.656,1.713,3.622,3.746C3175.125,2687.328,3173.482,2688.936,3171.476,2688.936z"/>
				<path style="opacity:0.65;fill:#FFFFFF;" d="M1879.564,2743.786c-17.154,0-31.11-13.957-31.11-31.11
					c0-17.153,13.955-31.11,31.11-31.11c17.154,0,31.11,13.957,31.11,31.11C1910.674,2729.829,1896.718,2743.786,1879.564,2743.786z
					 M1879.564,2688.936c-13.09,0-23.741,10.65-23.741,23.741c0,13.09,10.651,23.741,23.741,23.741
					c13.09,0,23.741-10.651,23.741-23.741C1903.305,2699.586,1892.654,2688.936,1879.564,2688.936z"/>
				
					<linearGradient id="SVGID_00000170992173477662377480000007269088322699233980_" gradientUnits="userSpaceOnUse" x1="1939.616" y1="3083.9534" x2="1605.4026" y2="3817.769">
					<stop  offset="0" style="stop-color:#2B3582"/>
					<stop  offset="1" style="stop-color:#150E42"/>
				</linearGradient>
				<path style="fill:url(#SVGID_00000170992173477662377480000007269088322699233980_);" d="M2424.229,3190.629H1399.719
					c-27.833,0-48.734-19.814-43.353-41.097l13.146-51.991c3.953-15.635,21.155-27.115,41.585-27.752l987.664-30.819
					c21.344-0.666,40.243,10.664,44.894,26.914l23.699,82.81C2473.512,3170.207,2452.511,3190.629,2424.229,3190.629z"/>
				<path style="fill:#FFFFFF;" d="M1951.231,3084.22c-2.01,0-3.652-1.616-3.683-3.631c-0.029-2.037,1.596-3.71,3.63-3.739
					l42.324-0.619c1.981-0.025,3.708,1.597,3.738,3.631c0.029,2.036-1.596,3.71-3.631,3.739l-42.323,0.619
					C1951.268,3084.22,1951.25,3084.22,1951.231,3084.22z"/>
				<path style="fill:#FFFFFF;" d="M1394.299,3162.311c-0.194,0-0.389-0.014-0.587-0.047c-2.01-0.32-3.379-2.209-3.057-4.217
					l6.038-37.817c3.271-20.488,20.7-35.575,41.444-35.881l448.895-6.563c2.001-0.101,3.71,1.597,3.739,3.63
					c0.029,2.037-1.596,3.71-3.63,3.739l-448.895,6.563c-17.156,0.252-31.57,12.73-34.276,29.671l-6.038,37.817
					C1397.643,3161.019,1396.076,3162.311,1394.299,3162.311z"/>
			</g>
			<g>
				<g style="opacity:0.53;">
					<rect x="1972.394" y="1416.728" style="fill:#FFFFFF;" width="92.965" height="480.567"/>
					<rect x="2127.729" y="1416.728" style="fill:#FFFFFF;" width="92.965" height="480.567"/>
					<rect x="2283.066" y="1416.728" style="fill:#FFFFFF;" width="92.965" height="480.567"/>
					<rect x="2438.402" y="1416.728" style="fill:#FFFFFF;" width="92.965" height="480.567"/>
					<rect x="2593.738" y="1416.728" style="fill:#FFFFFF;" width="92.965" height="480.567"/>
					<rect x="2749.074" y="1416.728" style="fill:#FFFFFF;" width="92.965" height="480.567"/>
					<rect x="2904.411" y="1416.728" style="fill:#FFFFFF;" width="92.965" height="480.567"/>
				</g>
				
					<linearGradient id="SVGID_00000137117567794624521610000013521500293465767860_" gradientUnits="userSpaceOnUse" x1="2018.7892" y1="1762.5956" x2="2021.8909" y2="2082.041">
					<stop  offset="0" style="stop-color:#53D8FF"/>
					<stop  offset="1" style="stop-color:#3840F7"/>
				</linearGradient>
				
					<rect x="1972.394" y="1645.796" style="fill:url(#SVGID_00000137117567794624521610000013521500293465767860_);" width="92.965" height="251.499"/>
				
					<linearGradient id="SVGID_00000152985173046687752850000011221988511808736954_" gradientUnits="userSpaceOnUse" x1="2173.696" y1="1761.6183" x2="2176.8003" y2="2081.3162">
					<stop  offset="0" style="stop-color:#53D8FF"/>
					<stop  offset="1" style="stop-color:#3840F7"/>
				</linearGradient>
				
					<rect x="2127.729" y="1732.232" style="fill:url(#SVGID_00000152985173046687752850000011221988511808736954_);" width="92.965" height="165.063"/>
				
					<linearGradient id="SVGID_00000009577810616668964350000013799007172286373309_" gradientUnits="userSpaceOnUse" x1="2330.0627" y1="1760.9099" x2="2333.1628" y2="2080.1948">
					<stop  offset="0" style="stop-color:#53D8FF"/>
					<stop  offset="1" style="stop-color:#3840F7"/>
				</linearGradient>
				
					<rect x="2283.066" y="1518.611" style="fill:url(#SVGID_00000009577810616668964350000013799007172286373309_);" width="92.965" height="378.685"/>
				
					<linearGradient id="SVGID_00000051353170845784323470000015231175484223645059_" gradientUnits="userSpaceOnUse" x1="2483.9895" y1="1759.6161" x2="2487.0994" y2="2079.9058">
					<stop  offset="0" style="stop-color:#53D8FF"/>
					<stop  offset="1" style="stop-color:#3840F7"/>
				</linearGradient>
				
					<rect x="2438.402" y="1806.321" style="fill:url(#SVGID_00000051353170845784323470000015231175484223645059_);" width="92.965" height="90.974"/>
				
					<linearGradient id="SVGID_00000150822939172375272270000002222401405087129739_" gradientUnits="userSpaceOnUse" x1="2640.4722" y1="1759.1427" x2="2643.5728" y2="2078.4771">
					<stop  offset="0" style="stop-color:#53D8FF"/>
					<stop  offset="1" style="stop-color:#3840F7"/>
				</linearGradient>
				
					<rect x="2593.738" y="1569.238" style="fill:url(#SVGID_00000150822939172375272270000002222401405087129739_);" width="92.965" height="328.057"/>
				
					<linearGradient id="SVGID_00000148654211433112581040000005483624883031574162_" gradientUnits="userSpaceOnUse" x1="2795.5234" y1="1758.2377" x2="2798.6248" y2="2077.6487">
					<stop  offset="0" style="stop-color:#53D8FF"/>
					<stop  offset="1" style="stop-color:#3840F7"/>
				</linearGradient>
				
					<rect x="2749.074" y="1626.039" style="fill:url(#SVGID_00000148654211433112581040000005483624883031574162_);" width="92.965" height="271.256"/>
				
					<linearGradient id="SVGID_00000047033931612965405040000012782280965492171960_" gradientUnits="userSpaceOnUse" x1="2950.551" y1="1757.3085" x2="2953.6538" y2="2076.8521">
					<stop  offset="0" style="stop-color:#53D8FF"/>
					<stop  offset="1" style="stop-color:#3840F7"/>
				</linearGradient>
				
					<rect x="2904.411" y="1687.779" style="fill:url(#SVGID_00000047033931612965405040000012782280965492171960_);" width="92.965" height="209.516"/>
			</g>
			<g>
				<g>
					<g>
						<defs>
							<path id="SVGID_00000136382853027238874010000006460959863745183104_" d="M901.067,1993.36
								c-95.025,0-172.058,77.033-172.058,172.057c0,95.025,77.032,172.058,172.058,172.058
								c95.025,0,172.057-77.033,172.057-172.058C1073.124,2070.393,996.092,1993.36,901.067,1993.36z M901.067,2263.443
								c-54.138,0-98.025-43.887-98.025-98.025c0-54.137,43.887-98.024,98.025-98.024c54.137,0,98.024,43.887,98.024,98.024
								C999.091,2219.555,955.204,2263.443,901.067,2263.443z"/>
						</defs>
						
							<use xlink:href="#SVGID_00000136382853027238874010000006460959863745183104_"  style="overflow:visible;opacity:0.57;fill:#FFFFFF;"/>
						<clipPath id="SVGID_00000072269602898992524350000016985248313228266669_">
							<use xlink:href="#SVGID_00000136382853027238874010000006460959863745183104_"  style="overflow:visible;opacity:0.57;"/>
						</clipPath>
						
							<linearGradient id="SVGID_00000167364976866117824620000005273599893262725010_" gradientUnits="userSpaceOnUse" x1="924.5872" y1="1990.3196" x2="900.3347" y2="2711.824">
							<stop  offset="0" style="stop-color:#53D8FF"/>
							<stop  offset="1" style="stop-color:#3840F7"/>
						</linearGradient>
						
							<rect x="660.791" y="2127.578" style="clip-path:url(#SVGID_00000072269602898992524350000016985248313228266669_);fill:url(#SVGID_00000167364976866117824620000005273599893262725010_);" width="511.094" height="216.292"/>
					</g>
				</g>
				<g>
					<g>
						<defs>
							<path id="SVGID_00000150087132430213353410000014790182071773222027_" d="M1320.492,1993.36
								c-95.025,0-172.057,77.033-172.057,172.057c0,95.025,77.032,172.058,172.057,172.058
								c95.026,0,172.058-77.033,172.058-172.058C1492.55,2070.393,1415.518,1993.36,1320.492,1993.36z M1320.492,2263.443
								c-54.137,0-98.025-43.887-98.025-98.025c0-54.137,43.887-98.024,98.025-98.024c54.138,0,98.025,43.887,98.025,98.024
								C1418.517,2219.555,1374.63,2263.443,1320.492,2263.443z"/>
						</defs>
						
							<use xlink:href="#SVGID_00000150087132430213353410000014790182071773222027_"  style="overflow:visible;opacity:0.57;fill:#FFFFFF;"/>
						<clipPath id="SVGID_00000152239547175800372440000006481893991074935728_">
							<use xlink:href="#SVGID_00000150087132430213353410000014790182071773222027_"  style="overflow:visible;opacity:0.57;"/>
						</clipPath>
						
							<linearGradient id="SVGID_00000047777366945892508210000001148326012323319444_" gradientUnits="userSpaceOnUse" x1="1342.1356" y1="2004.3545" x2="1317.8832" y2="2725.8601">
							<stop  offset="0" style="stop-color:#53D8FF"/>
							<stop  offset="1" style="stop-color:#3840F7"/>
						</linearGradient>
						
							<rect x="1080.216" y="2043.975" style="clip-path:url(#SVGID_00000152239547175800372440000006481893991074935728_);fill:url(#SVGID_00000047777366945892508210000001148326012323319444_);" width="511.095" height="299.895"/>
					</g>
				</g>
				<g>
					<g>
						<defs>
							<path id="SVGID_00000085224439522847879050000015098786371872340889_" d="M1739.918,1993.36
								c-95.026,0-172.058,77.033-172.058,172.057c0,95.025,77.032,172.058,172.058,172.058
								c95.025,0,172.057-77.033,172.057-172.058C1911.975,2070.393,1834.943,1993.36,1739.918,1993.36z M1739.918,2263.443
								c-54.138,0-98.026-43.887-98.026-98.025c0-54.137,43.888-98.024,98.026-98.024c54.137,0,98.025,43.887,98.025,98.024
								C1837.943,2219.555,1794.056,2263.443,1739.918,2263.443z"/>
						</defs>
						
							<use xlink:href="#SVGID_00000085224439522847879050000015098786371872340889_"  style="overflow:visible;opacity:0.57;fill:#FFFFFF;"/>
						<clipPath id="SVGID_00000183206670759063903490000009108026881906873746_">
							<use xlink:href="#SVGID_00000085224439522847879050000015098786371872340889_"  style="overflow:visible;opacity:0.57;"/>
						</clipPath>
						
							<linearGradient id="SVGID_00000021809265595729172350000006684542508219030703_" gradientUnits="userSpaceOnUse" x1="1764.3071" y1="2018.5461" x2="1740.0547" y2="2740.05">
							<stop  offset="0" style="stop-color:#53D8FF"/>
							<stop  offset="1" style="stop-color:#3840F7"/>
						</linearGradient>
						
							<rect x="1499.642" y="2235.724" style="clip-path:url(#SVGID_00000183206670759063903490000009108026881906873746_);fill:url(#SVGID_00000021809265595729172350000006684542508219030703_);" width="511.094" height="108.146"/>
					</g>
				</g>
			</g>
			<g>
				<path style="opacity:0.44;fill:#FFFFFF;" d="M2992.361,2572.51l-984.864-7.398c-19.429-0.146-35.103-15.937-35.103-35.367
					V2023.74c0-19.534,15.835-35.369,35.369-35.369h984.864c19.533,0,35.369,15.835,35.369,35.369v513.404
					C3027.995,2556.781,3011.998,2572.658,2992.361,2572.51z"/>
				<path style="opacity:0.44;fill:#FFFFFF;" d="M2839.599,2216.831l-126.644-133.895l-181.588,197.505l-128.132-138.255
					l-120.17,135.844l-92.152-111.956l-181.61,189.078v136.731c0,18.071,14.577,32.759,32.648,32.895l915.991,6.881
					c18.264,0.138,33.142-14.63,33.142-32.894v-371.969L2839.599,2216.831z"/>
				<rect x="2840.196" y="2213.11" style="fill:#FFFFFF;" width="3.684" height="318.55"/>
				<rect x="2711.114" y="2082.936" style="fill:#FFFFFF;" width="3.684" height="446.885"/>
				<rect x="2529.525" y="2278.032" style="fill:#FFFFFF;" width="3.684" height="250.425"/>
				<rect x="2404.798" y="2147.084" style="fill:#FFFFFF;" width="3.685" height="381.374"/>
				<rect x="2281.224" y="2273.973" style="fill:#FFFFFF;" width="3.684" height="254.484"/>
				<rect x="2191.025" y="2156.583" style="fill:#FFFFFF;" width="3.684" height="369.435"/>
				
					<linearGradient id="SVGID_00000105387431137360989650000006582264159276158904_" gradientUnits="userSpaceOnUse" x1="2216.1409" y1="2086.2178" x2="2099.377" y2="2439.2256">
					<stop  offset="0" style="stop-color:#FDF53F"/>
					<stop  offset="1" style="stop-color:#D93C65"/>
				</linearGradient>
				<path style="fill:url(#SVGID_00000105387431137360989650000006582264159276158904_);" d="M2220.695,2156.582
					c0,15.369-12.459,27.828-27.828,27.828s-27.828-12.459-27.828-27.828c0-15.369,12.459-27.828,27.828-27.828
					S2220.695,2141.212,2220.695,2156.582z"/>
				
					<linearGradient id="SVGID_00000179620589547797328990000000935386036849472431_" gradientUnits="userSpaceOnUse" x1="2298.3982" y1="2227.6208" x2="2221.4783" y2="2460.1694">
					<stop  offset="0" style="stop-color:#FDF53F"/>
					<stop  offset="1" style="stop-color:#D93C65"/>
				</linearGradient>
				
					<circle style="fill:url(#SVGID_00000179620589547797328990000000935386036849472431_);" cx="2283.066" cy="2273.974" r="18.332"/>
				
					<linearGradient id="SVGID_00000069364859760241171230000001994919909974618772_" gradientUnits="userSpaceOnUse" x1="2421.9719" y1="2100.7324" x2="2345.0522" y2="2333.2808">
					<stop  offset="0" style="stop-color:#FDF53F"/>
					<stop  offset="1" style="stop-color:#D93C65"/>
				</linearGradient>
				<path style="fill:url(#SVGID_00000069364859760241171230000001994919909974618772_);" d="M2424.972,2147.085
					c0,10.125-8.208,18.332-18.332,18.332c-10.125,0-18.332-8.207-18.332-18.332c0-10.125,8.208-18.332,18.332-18.332
					C2416.764,2128.753,2424.972,2136.961,2424.972,2147.085z"/>
				
					<linearGradient id="SVGID_00000176028828234287348730000015468952171731057850_" gradientUnits="userSpaceOnUse" x1="2546.6995" y1="2231.6787" x2="2469.7798" y2="2464.2266">
					<stop  offset="0" style="stop-color:#FDF53F"/>
					<stop  offset="1" style="stop-color:#D93C65"/>
				</linearGradient>
				
					<circle style="fill:url(#SVGID_00000176028828234287348730000015468952171731057850_);" cx="2531.367" cy="2278.031" r="18.332"/>
				
					<linearGradient id="SVGID_00000110457236198616841870000013220933788156944828_" gradientUnits="userSpaceOnUse" x1="2728.2881" y1="2036.5834" x2="2651.3682" y2="2269.1318">
					<stop  offset="0" style="stop-color:#FDF53F"/>
					<stop  offset="1" style="stop-color:#D93C65"/>
				</linearGradient>
				
					<circle style="fill:url(#SVGID_00000110457236198616841870000013220933788156944828_);" cx="2712.956" cy="2082.936" r="18.332"/>
				
					<linearGradient id="SVGID_00000134226493191012750110000004449381580436936631_" gradientUnits="userSpaceOnUse" x1="2857.3713" y1="2166.7561" x2="2780.4514" y2="2399.3047">
					<stop  offset="0" style="stop-color:#53D8FF"/>
					<stop  offset="1" style="stop-color:#3840F7"/>
				</linearGradient>
				
					<circle style="fill:url(#SVGID_00000134226493191012750110000004449381580436936631_);" cx="2842.039" cy="2213.109" r="18.332"/>
			</g>
			<g style="opacity:0.48;">
				<path style="fill:#FFFFFF;" d="M1050.115,1416.728H746.344c-12.708,0-23.009,9.448-23.009,21.103
					c0,11.655,10.302,21.103,23.009,21.103h303.771c12.708,0,23.009-9.448,23.009-21.103
					C1073.124,1426.176,1062.823,1416.728,1050.115,1416.728z"/>
				<path style="fill:#FFFFFF;" d="M1050.115,1510.169H746.344c-12.708,0-23.009,9.448-23.009,21.103
					c0,11.655,10.302,21.103,23.009,21.103h303.771c12.708,0,23.009-9.448,23.009-21.103
					C1073.124,1519.618,1062.823,1510.169,1050.115,1510.169z"/>
				<path style="fill:#FFFFFF;" d="M1050.115,1883.936H746.344c-12.708,0-23.009,9.448-23.009,21.103
					c0,11.655,10.302,21.103,23.009,21.103h303.771c12.708,0,23.009-9.448,23.009-21.103
					C1073.124,1893.384,1062.823,1883.936,1050.115,1883.936z"/>
				<path style="fill:#FFFFFF;" d="M1050.115,1790.494H746.344c-12.708,0-23.009,9.448-23.009,21.103
					c0,11.655,10.302,21.103,23.009,21.103h303.771c12.708,0,23.009-9.448,23.009-21.103
					C1073.124,1799.942,1062.823,1790.494,1050.115,1790.494z"/>
				<path style="fill:#FFFFFF;" d="M1050.115,1697.053H746.344c-12.708,0-23.009,9.448-23.009,21.103
					c0,11.655,10.302,21.103,23.009,21.103h303.771c12.708,0,23.009-9.448,23.009-21.103
					C1073.124,1706.5,1062.823,1697.053,1050.115,1697.053z"/>
			</g>
			<g style="opacity:0.48;">
				<path style="fill:#FFFFFF;" d="M1472.378,1416.728h-303.771c-12.708,0-23.009,9.448-23.009,21.103
					c0,11.655,10.302,21.103,23.009,21.103h303.771c12.708,0,23.009-9.448,23.009-21.103
					C1495.387,1426.176,1485.086,1416.728,1472.378,1416.728z"/>
				<path style="fill:#FFFFFF;" d="M1472.378,1510.169h-303.771c-12.708,0-23.009,9.448-23.009,21.103
					c0,11.655,10.302,21.103,23.009,21.103h303.771c12.708,0,23.009-9.448,23.009-21.103
					C1495.387,1519.618,1485.086,1510.169,1472.378,1510.169z"/>
				<path style="fill:#FFFFFF;" d="M1472.378,1883.936h-303.771c-12.708,0-23.009,9.448-23.009,21.103
					c0,11.655,10.302,21.103,23.009,21.103h303.771c12.708,0,23.009-9.448,23.009-21.103
					C1495.387,1893.384,1485.086,1883.936,1472.378,1883.936z"/>
				<path style="fill:#FFFFFF;" d="M1472.378,1790.494h-303.771c-12.708,0-23.009,9.448-23.009,21.103
					c0,11.655,10.302,21.103,23.009,21.103h303.771c12.708,0,23.009-9.448,23.009-21.103
					C1495.387,1799.942,1485.086,1790.494,1472.378,1790.494z"/>
				<path style="fill:#FFFFFF;" d="M1472.378,1697.053h-303.771c-12.708,0-23.009,9.448-23.009,21.103
					c0,11.655,10.302,21.103,23.009,21.103h303.771c12.708,0,23.009-9.448,23.009-21.103
					C1495.387,1706.5,1485.086,1697.053,1472.378,1697.053z"/>
			</g>
			<g style="opacity:0.48;">
				<path style="fill:#FFFFFF;" d="M1894.641,1416.728H1590.87c-12.708,0-23.009,9.448-23.009,21.103
					c0,11.655,10.302,21.103,23.009,21.103h303.771c12.708,0,23.009-9.448,23.009-21.103
					C1917.65,1426.176,1907.349,1416.728,1894.641,1416.728z"/>
				<path style="fill:#FFFFFF;" d="M1894.641,1510.169H1590.87c-12.708,0-23.009,9.448-23.009,21.103
					c0,11.655,10.302,21.103,23.009,21.103h303.771c12.708,0,23.009-9.448,23.009-21.103
					C1917.65,1519.618,1907.349,1510.169,1894.641,1510.169z"/>
				<path style="fill:#FFFFFF;" d="M1894.641,1883.936H1590.87c-12.708,0-23.009,9.448-23.009,21.103
					c0,11.655,10.302,21.103,23.009,21.103h303.771c12.708,0,23.009-9.448,23.009-21.103
					C1917.65,1893.384,1907.349,1883.936,1894.641,1883.936z"/>
				<path style="fill:#FFFFFF;" d="M1894.641,1790.494H1590.87c-12.708,0-23.009,9.448-23.009,21.103
					c0,11.655,10.302,21.103,23.009,21.103h303.771c12.708,0,23.009-9.448,23.009-21.103
					C1917.65,1799.942,1907.349,1790.494,1894.641,1790.494z"/>
				<path style="fill:#FFFFFF;" d="M1894.641,1697.053H1590.87c-12.708,0-23.009,9.448-23.009,21.103
					c0,11.655,10.302,21.103,23.009,21.103h303.771c12.708,0,23.009-9.448,23.009-21.103
					C1917.65,1706.5,1907.349,1697.053,1894.641,1697.053z"/>
			</g>
		</g>
		<g>
			<g>
				
					<linearGradient id="SVGID_00000015312275692110484550000002483266980446190510_" gradientUnits="userSpaceOnUse" x1="-4105.3252" y1="1945.847" x2="-4583.5205" y2="3764.7007" gradientTransform="matrix(-1 0 0 1 -2985.6719 0)">
					<stop  offset="0" style="stop-color:#CB236D"/>
					<stop  offset="1" style="stop-color:#4C246D"/>
				</linearGradient>
				<path style="fill:url(#SVGID_00000015312275692110484550000002483266980446190510_);" d="M1630.671,3106.847
					c0,0-164.655,181.529-302.169,104.809c-110.519-61.659,46.498-45.547,179.686-74.681c10.452-2.286,7.716-17.909-2.891-16.503
					c-104.207,13.816-263.214,25.108-290.832-29.228c-41.692-82.026-1.26-55.423,125.629-43.575
					c126.89,11.849,151.339-19.483,68.512-38.998c-82.827-19.514-214.589,23.648-245.283-16.488
					c-30.694-40.136-47.472-119.807-59.706-154.071c-12.234-34.263,157.951-85.675,203.961-40.695
					c46.01,44.98,83.372,145.379,137.974,163.709c54.602,18.33-4.133-70.48-40.345-116.319
					c-36.212-45.84-50.568-79.907,21.781-68.974c72.349,10.933,110.593,99.233,118.22,165.145
					c7.627,65.911,33.109,102.777,31.955,70.169c-1.154-32.609-12.987-132.608-36.111-162.675
					C1517.928,2818.405,1683.002,2855.096,1630.671,3106.847z"/>
				<path style="opacity:0.53;fill:#FFFFFF;" d="M1617.27,3108.579c-0.724,0.275-1.572,0.154-2.197-0.396
					c-141.328-123.642-378.366-213.51-380.744-214.402c-1.12-0.42-1.685-1.666-1.266-2.789c0.419-1.114,1.668-1.683,2.787-1.263
					c2.385,0.894,240.146,91.03,382.074,215.199c0.899,0.785,0.99,2.152,0.203,3.052
					C1617.886,3108.259,1617.59,3108.457,1617.27,3108.579z"/>
			</g>
			<g>
				
					<linearGradient id="SVGID_00000156577264087438631980000015356337362802374802_" gradientUnits="userSpaceOnUse" x1="-297.93" y1="3512.0005" x2="403.6068" y2="2622.6802" gradientTransform="matrix(0.9919 -0.1267 0.1267 0.9919 1280.1683 -270.6762)">
					<stop  offset="0" style="stop-color:#A737D5"/>
					<stop  offset="1" style="stop-color:#EF497A"/>
				</linearGradient>
				<path style="fill:url(#SVGID_00000156577264087438631980000015356337362802374802_);" d="M1730.077,3222.785
					c0,0-300.7,9.921-350.543-176.853c-40.058-150.108,79.878,2.081,219.345,94.611c10.945,7.261,22.38-8.498,12.079-16.647
					c-101.205-80.066-247-210.599-222.691-281.365c36.696-106.831,47.784-48.46,145.741,73.528
					c97.957,121.989,146.466,116.775,92.911,27.084c-53.555-89.691-204.172-168.979-195.01-230.327
					c9.162-61.348,65.067-144.202,84.821-184.259c19.755-40.058,210.469,66.056,210.121,145.045
					c-0.349,78.99-56.94,197.698-26.454,261.495c30.487,63.796,58.604-63.855,68.079-134.941
					c9.475-71.085,27.245-112.846,79.414-39.722c52.169,73.123,6.997,182.273-44.595,245.305s-62.322,116.992-34.56,88.117
					c27.762-28.875,105.812-124.737,112.564-170.809C1888.05,2876.974,1996.727,3053.848,1730.077,3222.785z"/>
				<path style="opacity:0.53;fill:#FFFFFF;" d="M1717.102,3212.45c-0.862-0.404-1.479-1.254-1.528-2.274
					c-11.735-230.222-135.01-515.969-136.255-518.827c-0.586-1.346,0.03-2.909,1.378-3.498c1.34-0.582,2.909,0.033,3.495,1.379
					c1.249,2.865,124.905,289.478,136.688,520.679c0.076,1.463-1.052,2.711-2.517,2.787
					C1717.911,3212.72,1717.483,3212.628,1717.102,3212.45z"/>
			</g>
		</g>
		<g>
			<g>
				
					<ellipse transform="matrix(0.7071 -0.7071 0.7071 0.7071 -410.7168 1517.8333)" style="opacity:0.57;fill:#FFFFFF;" cx="1626.828" cy="1254.696" rx="599.751" ry="599.751"/>
				<g>
					
						<linearGradient id="SVGID_00000157270020680542861870000008339111780735386260_" gradientUnits="userSpaceOnUse" x1="2072.7571" y1="662.6532" x2="920.2316" y2="2192.8174">
						<stop  offset="0" style="stop-color:#A737D5"/>
						<stop  offset="1" style="stop-color:#EF497A"/>
					</linearGradient>
					
						<circle style="fill:url(#SVGID_00000157270020680542861870000008339111780735386260_);" cx="1626.828" cy="1254.696" r="511.865"/>
					<path style="fill:#FFFFFF;" d="M1626.828,1792.198c-296.378,0-537.501-241.121-537.501-537.503
						s241.123-537.503,537.501-537.503s537.501,241.121,537.501,537.503S1923.205,1792.198,1626.828,1792.198z M1626.828,742.831
						c-282.242,0-511.862,229.62-511.862,511.864c0,282.245,229.619,511.864,511.862,511.864
						c282.243,0,511.862-229.619,511.862-511.864C2138.689,972.451,1909.07,742.831,1626.828,742.831z"/>
				</g>
				<g>
					
						<linearGradient id="SVGID_00000143614697017876776710000014452345891046430897_" gradientUnits="userSpaceOnUse" x1="2072.7568" y1="662.6533" x2="920.2332" y2="2192.8149">
						<stop  offset="0" style="stop-color:#A737D5"/>
						<stop  offset="1" style="stop-color:#EF497A"/>
					</linearGradient>
					
						<circle style="fill:url(#SVGID_00000143614697017876776710000014452345891046430897_);" cx="1626.828" cy="1254.696" r="312.057"/>
					<path style="fill:#FFFFFF;" d="M1626.828,1592.392c-186.205,0-337.694-151.491-337.694-337.697
						s151.489-337.692,337.694-337.692c186.205,0,337.694,151.487,337.694,337.692S1813.033,1592.392,1626.828,1592.392z
						 M1626.828,968.277c-157.932,0-286.42,128.486-286.42,286.418s128.488,286.423,286.42,286.423
						c157.933,0,286.42-128.49,286.42-286.423S1784.76,968.277,1626.828,968.277z"/>
				</g>
				<g>
					
						<linearGradient id="SVGID_00000037651728138332296510000016020002367084888473_" gradientUnits="userSpaceOnUse" x1="2072.7566" y1="662.6535" x2="920.2341" y2="2192.8135">
						<stop  offset="0" style="stop-color:#A737D5"/>
						<stop  offset="1" style="stop-color:#EF497A"/>
					</linearGradient>
					
						<circle style="fill:url(#SVGID_00000037651728138332296510000016020002367084888473_);" cx="1626.828" cy="1254.696" r="120.9"/>
					<path style="fill:#FFFFFF;" d="M1626.828,1401.234c-80.8,0-146.536-65.736-146.536-146.539s65.736-146.539,146.536-146.539
						c80.801,0,146.539,65.736,146.539,146.539S1707.628,1401.234,1626.828,1401.234z M1626.828,1159.431
						c-52.528,0-95.262,42.734-95.262,95.265c0,52.53,42.734,95.265,95.262,95.265c52.528,0,95.265-42.735,95.265-95.265
						C1722.092,1202.165,1679.356,1159.431,1626.828,1159.431z"/>
				</g>
			</g>
			<g>
				
					<linearGradient id="SVGID_00000083090863938905612290000016437650923871567001_" gradientUnits="userSpaceOnUse" x1="578.5513" y1="4974.8276" x2="395.6722" y2="5717.7715" gradientTransform="matrix(-0.5954 -0.8034 0.8034 -0.5954 -2176.4268 4591.3066)">
					<stop  offset="0" style="stop-color:#2B3582"/>
					<stop  offset="1" style="stop-color:#150E42"/>
				</linearGradient>
				<polygon style="fill:url(#SVGID_00000083090863938905612290000016437650923871567001_);" points="2465.072,626.239 
					2478.683,644.605 1783.23,1160.02 1769.619,1141.655 				"/>
				
					<linearGradient id="SVGID_00000068637091681069015390000012811518265899175083_" gradientUnits="userSpaceOnUse" x1="422.6096" y1="5130.9912" x2="366.7275" y2="5730.4585" gradientTransform="matrix(-0.5954 -0.8034 0.8034 -0.5954 -2176.4268 4591.3066)">
					<stop  offset="0" style="stop-color:#CB236D"/>
					<stop  offset="1" style="stop-color:#4C246D"/>
				</linearGradient>
				<path style="fill:url(#SVGID_00000068637091681069015390000012811518265899175083_);" d="M1786.679,1104.761
					c10.536-7.809,47.349,41.863,36.812,49.671l-179.13,102.239c-6.618,3.777-13.154-5.042-7.615-10.275L1786.679,1104.761z"/>
				
					<linearGradient id="SVGID_00000041978133248319456700000005948049157965471390_" gradientUnits="userSpaceOnUse" x1="374.3818" y1="5954.0835" x2="298.1924" y2="6771.395" gradientTransform="matrix(-0.5954 -0.8034 0.8034 -0.5954 -2176.4268 4591.3066)">
					<stop  offset="0" style="stop-color:#CB236D"/>
					<stop  offset="1" style="stop-color:#4C246D"/>
				</linearGradient>
				<path style="fill:url(#SVGID_00000041978133248319456700000005948049157965471390_);" d="M2478.286,644.899l80.246,20.206
					l-128.44,95.19c-42.083,31.188-95.935,41.856-146.729,29.066l0,0L2478.286,644.899z"/>
				
					<linearGradient id="SVGID_00000163763215211970966860000009430105637617541020_" gradientUnits="userSpaceOnUse" x1="246.1748" y1="5954.2666" x2="169.9857" y2="6771.5742" gradientTransform="matrix(0.5954 0.8034 0.8034 -0.5954 -2589.1538 4034.7046)">
					<stop  offset="0" style="stop-color:#CB236D"/>
					<stop  offset="1" style="stop-color:#4C246D"/>
				</linearGradient>
				<path style="fill:url(#SVGID_00000163763215211970966860000009430105637617541020_);" d="M2464.675,626.534l4.015-82.653
					l-128.44,95.19c-42.082,31.188-67.956,79.607-70.498,131.925l0,0L2464.675,626.534z"/>
			</g>
		</g>
		<g>
			
				<linearGradient id="SVGID_00000176725796170925607170000014339091678235015869_" gradientUnits="userSpaceOnUse" x1="-6475.6709" y1="1801.7219" x2="-6387.79" y2="2022.1692" gradientTransform="matrix(-1 0 0 1 -5442.7979 0)">
				<stop  offset="0" style="stop-color:#2B3582"/>
				<stop  offset="1" style="stop-color:#150E42"/>
			</linearGradient>
			<path style="fill:url(#SVGID_00000176725796170925607170000014339091678235015869_);" d="M980.764,1920.305
				c0,0-29.627,14.411-35.074,30.965c-4.371,13.283-37.13,14.995-40.366,41.118c-1.671,13.488-11.651,24.289-25.085,26.348
				c-33.458,5.128-85.02,22.503-93.271,80.594c-6.297,44.34,16.307,61.153,40.029,66.972c17.423,4.274,29.003,21.221,25.479,38.812
				c-3.381,16.872,1.66,36.376,30.89,51.8c65.501,34.562,130.913-81.881,130.913-81.881l13.406-203.318L980.764,1920.305z"/>
			
				<linearGradient id="SVGID_00000098208519429470644450000004434174733097163419_" gradientUnits="userSpaceOnUse" x1="-6154.416" y1="3213.0479" x2="-6079.8965" y2="3213.0479" gradientTransform="matrix(-1 0 0 1 -5442.7979 0)">
				<stop  offset="0" style="stop-color:#2B3582"/>
				<stop  offset="1" style="stop-color:#150E42"/>
			</linearGradient>
			<path style="fill:url(#SVGID_00000098208519429470644450000004434174733097163419_);" d="M711.529,3195.176l-4.239,34.844
				c-0.804,6.61-6.008,11.837-12.624,12.593c-11.171,1.276-29.096,2.584-46.635,0.73c-7.698-0.814-12.696-8.609-10.35-15.987
				c4.275-13.451,12.096-33.644,23.374-45.527h38.654C706.856,3181.83,712.392,3188.082,711.529,3195.176z"/>
			
				<linearGradient id="SVGID_00000009574020012506633490000018420793135179388322_" gradientUnits="userSpaceOnUse" x1="-6469.2993" y1="3506.9116" x2="-6362.0605" y2="2253.5554" gradientTransform="matrix(-1 0 0 1 -5442.7979 0)">
				<stop  offset="0" style="stop-color:#C4421B"/>
				<stop  offset="1" style="stop-color:#5C0E16"/>
			</linearGradient>
			<path style="fill:url(#SVGID_00000009574020012506633490000018420793135179388322_);" d="M1014.278,2786.991l6.524,38.378
				c0,0-21.848,221.303-25.734,309.824c-0.609,13.878,2.981,27.593,10.265,39.422l37.99,61.692l-96.551-56.974l-1.922-11.782
				l15.806-21.731l-20.702-247.914c-1.217-14.563,1.788-29.169,8.656-42.07l19.971-37.518L1014.278,2786.991z"/>
			
				<linearGradient id="SVGID_00000056405467443201999420000001048275252173568904_" gradientUnits="userSpaceOnUse" x1="-6500.6274" y1="3199.4421" x2="-6380.0488" y2="3199.4421" gradientTransform="matrix(-1 0 0 1 -5442.7979 0)">
				<stop  offset="0" style="stop-color:#2B3582"/>
				<stop  offset="1" style="stop-color:#150E42"/>
			</linearGradient>
			<path style="fill:url(#SVGID_00000056405467443201999420000001048275252173568904_);" d="M1049.682,3245.244h-30.812
				c-5.767,0-11.206-2.647-14.723-7.218c-9.605-12.481-29.507-36.831-39.022-37.467c-12.81-0.855-11.172,44.685-11.172,44.685
				h-7.181l-9.095-56.59c-2.289-14.238,4.793-28.343,17.578-35.014l0,0c0,0,2.929,21.656,18.807,31.235
				c15.878,9.579,64.613,43.884,64.613,43.884s5.969-0.851,12.523,0.333C1060.919,3230.848,1059.561,3245.244,1049.682,3245.244z"/>
			
				<linearGradient id="SVGID_00000118397024109085809590000000680059434432229537_" gradientUnits="userSpaceOnUse" x1="-6253.5815" y1="3525.5608" x2="-6146.3145" y2="2271.8752" gradientTransform="matrix(-1 0 0 1 -5442.7979 0)">
				<stop  offset="0" style="stop-color:#C4421B"/>
				<stop  offset="1" style="stop-color:#5C0E16"/>
			</linearGradient>
			<path style="fill:url(#SVGID_00000118397024109085809590000000680059434432229537_);" d="M882.035,2805.219
				c0,0-127.993,242.789-148.339,298.222c-20.346,55.433-27.473,101.676-27.746,106.055c-0.426,6.843-8.937,13.405-32.397,13.405
				c-12.107,0-18.037-4.853-20.94-9.551c-2.477-4.007-2.605-9.022-0.518-13.247c7.404-14.983,30.9-62.867,39.602-84.585
				c10.389-25.931,32.737-143.442,44.994-184.3c12.256-40.857,26.111-85.177,79.484-126.001
				C816.175,2805.219,852.815,2769.333,882.035,2805.219z"/>
			
				<linearGradient id="SVGID_00000161616235239233652960000011941634352466746794_" gradientUnits="userSpaceOnUse" x1="1509.2449" y1="1896.2845" x2="853.3901" y2="2414.8667">
				<stop  offset="0" style="stop-color:#A737D5"/>
				<stop  offset="1" style="stop-color:#EF497A"/>
			</linearGradient>
			<path style="fill:url(#SVGID_00000161616235239233652960000011941634352466746794_);" d="M962.891,2407.396
				c33.016-139.903-50.624-219.031-50.624-219.031c52.775-50.658,148.931-73.71,148.931-73.71s91.754,67.08,80.869,119.585
				c-6.38,30.773-64.494,184.326-64.494,184.326S1023.835,2444,962.891,2407.396z"/>
			
				<linearGradient id="SVGID_00000065056646221697090480000013744355499767971234_" gradientUnits="userSpaceOnUse" x1="878.8456" y1="2494.7937" x2="1082.2117" y2="2860.8525">
				<stop  offset="0" style="stop-color:#CB236D"/>
				<stop  offset="1" style="stop-color:#4C246D"/>
			</linearGradient>
			<path style="fill:url(#SVGID_00000065056646221697090480000013744355499767971234_);" d="M889.688,2476.658
				c13.437-40.479,73.203-69.262,73.203-69.262c60.945,36.604,114.682,11.172,114.682,11.172s12.052,46.064,3.733,88.873
				c-8.318,42.809-60.503,317.929-60.503,317.929c-82.228,16.661-208.692-16.763-208.692-16.763
				C864.487,2715.617,876.252,2517.137,889.688,2476.658z"/>
			
				<linearGradient id="SVGID_00000174559623472260815340000010254977387364751745_" gradientUnits="userSpaceOnUse" x1="-6481.0601" y1="2271.4771" x2="-6460.9155" y2="2124.105" gradientTransform="matrix(-1 0 0 1 -5442.7979 0)">
				<stop  offset="0" style="stop-color:#C4421B"/>
				<stop  offset="1" style="stop-color:#5C0E16"/>
			</linearGradient>
			<path style="fill:url(#SVGID_00000174559623472260815340000010254977387364751745_);" d="M1001.214,2022.203l-26.843,120.573
				c-2.57,10.621,7.112,8.883,17.849,6.858c17.584-3.315,40.247-10.143,47.824-23.825c0.771-1.393,1.156-2.967,1.373-4.544
				l11.532-83.608c0.915-6.633-2.671-13.071-8.792-15.786l-22.254-9.868C1013.336,2008.204,1003.419,2013.093,1001.214,2022.203z"/>
			
				<linearGradient id="SVGID_00000163780840324463723350000010140336712888263345_" gradientUnits="userSpaceOnUse" x1="922.1877" y1="2138.9055" x2="871.3461" y2="2525.2991">
				<stop  offset="0" style="stop-color:#C4421B"/>
				<stop  offset="1" style="stop-color:#5C0E16"/>
			</linearGradient>
			<path style="fill:url(#SVGID_00000163780840324463723350000010140336712888263345_);" d="M912.267,2188.365
				c0,0-187.351,134.039-23.961,274.887c0,0,6.23,7.049,18.486,10.712c6.187,1.849,24.492,15.698,33.771,22.918
				c2.984,2.321,7.294,1.531,9.3-1.673l0,0c1.572-2.511,1.756-5.649,0.49-8.327l-23.194-49.045
				c-6.441-6.011-16.299-6.438-23.236-1.006l0,0c-4.425,3.466-10.907,2.015-13.384-3.031
				c-12.631-25.725-36.481-101.384,61.135-186.875c3.67-3.214,4.598-8.529,2.346-12.856
				C947.162,2220.894,931.477,2194.731,912.267,2188.365z"/>
			<g>
				
					<linearGradient id="SVGID_00000168795568859484521030000002572595717049063828_" gradientUnits="userSpaceOnUse" x1="-6594.4331" y1="929.6978" x2="-6418.6646" y2="616.888" gradientTransform="matrix(-0.9809 -0.1943 -0.1943 0.9809 -5213.708 -99.2406)">
					<stop  offset="0" style="stop-color:#C4421B"/>
					<stop  offset="1" style="stop-color:#5C0E16"/>
				</linearGradient>
				<path style="fill:url(#SVGID_00000168795568859484521030000002572595717049063828_);" d="M1052.629,1912.288
					c0,0,28.578,19.344,40.857,68.608c12.28,49.263-7.676,66.934-28.132,65.851c-20.456-1.083-50.115-7.409-75.813-42.75
					C963.843,1968.655,1015.181,1888.65,1052.629,1912.288z"/>
				
					<linearGradient id="SVGID_00000110462573401520222740000016064109227057387139_" gradientUnits="userSpaceOnUse" x1="-6556.6328" y1="657.2899" x2="-6468.748" y2="877.7463" gradientTransform="matrix(-0.9809 -0.1943 -0.1943 0.9809 -5213.708 -99.2406)">
					<stop  offset="0" style="stop-color:#2B3582"/>
					<stop  offset="1" style="stop-color:#150E42"/>
				</linearGradient>
				<path style="fill:url(#SVGID_00000110462573401520222740000016064109227057387139_);" d="M1015.455,1984.127
					c0,0-10.471-70.59,48.137-59.792l11.85,12.337c0,0,28.687-32.306-3.059-56.727c-31.746-24.421-75.8-18.167-100.172,26.292
					c-24.372,44.458-33.218,75.699-12.789,103.325c20.428,27.626,35.795,3.932,35.795,3.932s-9.369-23.91-1.595-34.171
					c7.774-10.26,17.804,5.966,17.804,5.966L1015.455,1984.127z"/>
				
					<linearGradient id="SVGID_00000017501340643243732460000011644108797805041846_" gradientUnits="userSpaceOnUse" x1="-6557.02" y1="950.7239" x2="-6381.2505" y2="637.913" gradientTransform="matrix(-0.9809 -0.1943 -0.1943 0.9809 -5213.708 -99.2406)">
					<stop  offset="0" style="stop-color:#C4421B"/>
					<stop  offset="1" style="stop-color:#5C0E16"/>
				</linearGradient>
				<path style="fill:url(#SVGID_00000017501340643243732460000011644108797805041846_);" d="M1007.446,1990.171
					c0,0-5.17-36.318-23.717-25.936c-18.549,10.382,6.685,33.926,16.801,41.937L1007.446,1990.171z"/>
			</g>
		</g>
		<g>
			
				<linearGradient id="SVGID_00000137107741286247900390000003660888100454744997_" gradientUnits="userSpaceOnUse" x1="-5890.9746" y1="2234.5073" x2="-5985.4478" y2="2376.2166" gradientTransform="matrix(-1 0 0 1 -3242.584 0)">
				<stop  offset="0" style="stop-color:#F9B776"/>
				<stop  offset="1" style="stop-color:#F47960"/>
			</linearGradient>
			<path style="fill:url(#SVGID_00000137107741286247900390000003660888100454744997_);" d="M2780.278,2462.373l-104.365,1.291
				l36.526-34.382c9.079-8.546,22.936-9.93,33.416-3.133c6.136,3.98,12.791,9.383,18.556,16.536c0,0,65.102-23.792,96.662-77.023
				c9.829,14.602,21.323,34.475,31.281,59.2C2864.063,2441.471,2827.388,2454.531,2780.278,2462.373z"/>
			
				<linearGradient id="SVGID_00000164485086890207581020000011727409651728058496_" gradientUnits="userSpaceOnUse" x1="-6044.7485" y1="3214.4878" x2="-5882.5615" y2="3214.4878" gradientTransform="matrix(-1 0 0 1 -3242.584 0)">
				<stop  offset="0" style="stop-color:#53D8FF"/>
				<stop  offset="1" style="stop-color:#3840F7"/>
			</linearGradient>
			<path style="fill:url(#SVGID_00000164485086890207581020000011727409651728058496_);" d="M2644.558,3206.643
				c27.784,2.402,76.005,6.303,114.021,7.976c22.852,1.006,36.008-1.232,43.586-4.265c-0.013,0.854-0.037,1.661-0.071,2.411
				c-0.18,4-3.43,7.2-7.471,7.426c-71.832,4.01-128.961,1.388-149.299,0.15c-4.205-0.256-6.711-4.826-4.561-8.412
				C2641.84,3210.136,2643.143,3208.38,2644.558,3206.643z"/>
			
				<linearGradient id="SVGID_00000062914923982318067600000006761520149155074452_" gradientUnits="userSpaceOnUse" x1="-5883.1016" y1="2943.1519" x2="-5920.0259" y2="3057.812" gradientTransform="matrix(-1 0 0 1 -3242.584 0)">
				<stop  offset="0" style="stop-color:#CB236D"/>
				<stop  offset="1" style="stop-color:#4C246D"/>
			</linearGradient>
			<path style="fill:url(#SVGID_00000062914923982318067600000006761520149155074452_);" d="M2758.579,3214.619
				c-38.016-1.673-86.237-5.574-114.021-7.976c27.316-33.515,114.021-56.103,114.021-56.103h24.488
				c16.843,24.278,19.281,47.393,19.097,59.814C2794.587,3213.388,2781.431,3215.625,2758.579,3214.619z"/>
			
				<linearGradient id="SVGID_00000116230730459979425130000012375476976406647948_" gradientUnits="userSpaceOnUse" x1="-6029.7749" y1="3138.3232" x2="-5984.0903" y2="3138.3232" gradientTransform="matrix(-1 0 0 1 -3242.584 0)">
				<stop  offset="0" style="stop-color:#F9B776"/>
				<stop  offset="1" style="stop-color:#F47960"/>
			</linearGradient>
			<path style="fill:url(#SVGID_00000116230730459979425130000012375476976406647948_);" d="M2787.191,3110.562l-2.292,45.348
				c-0.249,4.91-3.924,9.037-8.842,9.74c-4.893,0.7-11.446,0.789-18.396-1.524c-4.275-1.423-7.449-5.025-8.237-9.419l-7.919-44.145
				H2787.191z"/>
			<g>
				
					<linearGradient id="SVGID_00000090987054910747400750000005386952079753977747_" gradientUnits="userSpaceOnUse" x1="-6334.23" y1="3241.7949" x2="-6272.0771" y2="3241.7949" gradientTransform="matrix(-1 0 0 1 -3242.584 0)">
					<stop  offset="0" style="stop-color:#53D8FF"/>
					<stop  offset="1" style="stop-color:#3840F7"/>
				</linearGradient>
				<path style="fill:url(#SVGID_00000090987054910747400750000005386952079753977747_);" d="M3071.407,3245.624
					c12.049-1.956,17.501-9.243,19.787-17.034c0.015,0.07,0.03,0.14,0.045,0.21c1.772,8.218-2.337,16.735-10.553,20.786
					c-9.93,4.896-20.788,5.73-29.217,5.325c-9.043-0.434-17.345-4.791-21.907-11.764l-0.069-0.105
					C3038.571,3248.271,3051.313,3248.887,3071.407,3245.624z"/>
				
					<linearGradient id="SVGID_00000156586876427719696410000016046009107450161338_" gradientUnits="userSpaceOnUse" x1="-6176.8164" y1="2848.5657" x2="-6213.7407" y2="2963.2256" gradientTransform="matrix(-1 0 0 1 -3242.584 0)">
					<stop  offset="0" style="stop-color:#CB236D"/>
					<stop  offset="1" style="stop-color:#4C246D"/>
				</linearGradient>
				<path style="fill:url(#SVGID_00000156586876427719696410000016046009107450161338_);" d="M3014.598,3124.533h20.195
					c30.761-0.732,50.078,74.805,56.401,104.057c-2.286,7.791-7.738,15.078-19.787,17.034c-20.094,3.263-32.836,2.647-41.914-2.582
					c-16.619-25.461-24.857-62.75-28.818-84.513C2996.17,3133.778,3014.598,3124.533,3014.598,3124.533z"/>
			</g>
			
				<linearGradient id="SVGID_00000065768728706341267370000002141016614677463951_" gradientUnits="userSpaceOnUse" x1="-6286.3589" y1="3114.5005" x2="-6231.7612" y2="3114.5005" gradientTransform="matrix(-1 0 0 1 -3242.584 0)">
				<stop  offset="0" style="stop-color:#F9B776"/>
				<stop  offset="1" style="stop-color:#F47960"/>
			</linearGradient>
			<path style="fill:url(#SVGID_00000065768728706341267370000002141016614677463951_);" d="M3032.197,3082.443l11.214,44.601
				c1.375,5.469-1.243,11.125-6.299,13.719c-6.273,3.22-15.105,6.602-23.222,5.623c-3.817-0.46-6.989-3.149-8.25-6.744
				l-16.463-46.925L3032.197,3082.443z"/>
			
				<linearGradient id="SVGID_00000008130051281106288810000010409636556720637826_" gradientUnits="userSpaceOnUse" x1="-5844.7412" y1="2525.3223" x2="-6310.8813" y2="3288.9045" gradientTransform="matrix(-1 0 0 1 -3242.584 0)">
				<stop  offset="0" style="stop-color:#53D8FF"/>
				<stop  offset="1" style="stop-color:#3840F7"/>
			</linearGradient>
			<path style="fill:url(#SVGID_00000008130051281106288810000010409636556720637826_);" d="M2637.717,2495.016
				c0,0,100.213,626.418,98.563,629.861c0,0,27.678,12.58,57.852,1.603c0,0-9.063-334.865-30.297-463.26
				c0,0,171.03,299.304,225.343,448.44c0,0,28.327-3.378,51.776-18.81c0,0-184.152-538.732-233.281-610.489L2637.717,2495.016z"/>
			
				<linearGradient id="SVGID_00000008869762710769705480000017797765677532659352_" gradientUnits="userSpaceOnUse" x1="-5992.189" y1="2668.0032" x2="-5947.6284" y2="2580.6294" gradientTransform="matrix(-1 0 0 1 -3242.584 0)">
				<stop  offset="0" style="stop-color:#53D8FF"/>
				<stop  offset="1" style="stop-color:#3840F7"/>
			</linearGradient>
			<path style="fill:url(#SVGID_00000008869762710769705480000017797765677532659352_);" d="M2759.835,2662.155
				c0.934,0,1.881-0.252,2.732-0.786c2.412-1.511,3.145-4.693,1.634-7.105l-37.449-59.817c-0.753-1.204-1.964-2.04-3.354-2.322
				l-27.56-5.544c-2.787-0.579-5.509,1.249-6.073,4.039c-0.562,2.79,1.246,5.509,4.039,6.073l25.384,5.106l36.271,57.934
				C2756.439,2661.299,2758.118,2662.155,2759.835,2662.155z"/>
			
				<linearGradient id="SVGID_00000016758052514935759680000011080017046140759687_" gradientUnits="userSpaceOnUse" x1="-5535.3916" y1="1964.457" x2="-5751.6294" y2="2245.7759" gradientTransform="matrix(-1 0 0 1 -3242.584 0)">
				<stop  offset="0" style="stop-color:#F9B776"/>
				<stop  offset="1" style="stop-color:#F47960"/>
			</linearGradient>
			<path style="fill:url(#SVGID_00000016758052514935759680000011080017046140759687_);" d="M2177.844,1881.617
				c0,0,67.622,14.914,108.752,33.904c8.169,3.771,14.685,10.366,18.396,18.495c12.301,26.945,49.104,94.515,120.477,126.76
				c-10.278,13.643-26.828,42.02-34.038,89.716c-42.867-31.906-79.875-85.189-97.643-172.576c0,0-13.529,7.355-30.408-0.842
				c-8.917-4.331-19.213-10.474-26.942-15.305c-7.7-4.813-13.437-12.297-15.664-21.036c-2.942-11.54-1.209-21.688-1.209-32.573
				l-34.759-10.769C2184.805,1897.391,2174.356,1893.447,2177.844,1881.617z"/>
			
				<linearGradient id="SVGID_00000013173562063979621760000010966661199758800046_" gradientUnits="userSpaceOnUse" x1="-5791.9121" y1="2030.3557" x2="-6513.8481" y2="2885.9834" gradientTransform="matrix(-1 0 0 1 -3242.584 0)">
				<stop  offset="0" style="stop-color:#CB236D"/>
				<stop  offset="1" style="stop-color:#4C246D"/>
			</linearGradient>
			<path style="fill:url(#SVGID_00000013173562063979621760000010966661199758800046_);" d="M2391.43,2150.492
				c7.21-47.696,23.76-76.073,34.038-89.716c44.338,20.032,102.013,26.436,175.458,0.987c6.77-2.346,13.832-3.719,20.992-4.14
				c39.098-2.292,167.938-6.475,274.55,28.748c22.438,7.413,40.611,24,49.976,45.492c28.84,66.183,75.531,216.906-54.089,293
				c-9.959-24.724-21.453-44.598-31.281-59.2c20.874-35.209,27.056-83.299-9.986-145.922
				c-27.01,72.933-39.681,179.351-42.329,226.447c-0.872,15.506,1.848,30.982,7.932,45.298l0.664,1.562
				c1.302,3.063-0.49,6.584-3.765,7.319c-72.971,16.392-148.866,11.938-171.541,10.065c-4.048-0.335-7.411-3.23-8.339-7.143
				c-35.483-149.514-35.565-251.502-26.877-315.974C2573.639,2194.734,2472.139,2210.563,2391.43,2150.492z"/>
			<path style="fill:#EEAA4E;" d="M2606.691,2193.531c2.546,0,4.761-1.888,5.104-4.482c8.253-62.325,24.986-89.542,25.155-89.809
				c1.51-2.407,0.793-5.589-1.611-7.11c-2.407-1.51-5.582-0.806-7.103,1.591c-0.735,1.158-18.07,29.065-26.663,93.979
				c-0.375,2.82,1.611,5.413,4.434,5.786C2606.236,2193.516,2606.465,2193.531,2606.691,2193.531z"/>
			
				<linearGradient id="SVGID_00000139999769734406905350000017011550618066912418_" gradientUnits="userSpaceOnUse" x1="-6017.3804" y1="2146.2781" x2="-5993.7236" y2="2022.08" gradientTransform="matrix(-1 0 0 1 -3242.584 0)">
				<stop  offset="0" style="stop-color:#F9B776"/>
				<stop  offset="1" style="stop-color:#F47960"/>
			</linearGradient>
			<path style="fill:url(#SVGID_00000139999769734406905350000017011550618066912418_);" d="M2786.768,1970.526
				c0,0,7.382,78.052,13.882,101.14c0.986,3.503-0.535,7.196-3.718,9.014c-11.031,6.303-37.489,16.584-73.679-1.153
				c-5.863-2.874-9.388-8.985-9.114-15.453l3.189-75.423L2786.768,1970.526z"/>
			<g>
				
					<linearGradient id="SVGID_00000063605145614383230810000012848278958933048491_" gradientUnits="userSpaceOnUse" x1="-5953.3687" y1="1918.4142" x2="-6088.3452" y2="2021.6918" gradientTransform="matrix(-1 0 0 1 -3242.584 0)">
					<stop  offset="0" style="stop-color:#F9B776"/>
					<stop  offset="1" style="stop-color:#F47960"/>
				</linearGradient>
				<path style="fill:url(#SVGID_00000063605145614383230810000012848278958933048491_);" d="M2715.734,1870.673
					c0,0-23.611,54.238-25.196,82.706c-1.585,28.468-7.72,46.94,25.196,52.673c32.917,5.732,60.646-10.665,75.668-39.022
					c0,0,23.537-43.696,18.257-61.59C2804.379,1887.545,2715.734,1870.673,2715.734,1870.673z"/>
				
					<linearGradient id="SVGID_00000151515095456189322570000000475973849306178948_" gradientUnits="userSpaceOnUse" x1="-6048.3857" y1="1836.6412" x2="-5922.6772" y2="1998.4912" gradientTransform="matrix(-1 0 0 1 -3242.584 0)">
					<stop  offset="0" style="stop-color:#2B3582"/>
					<stop  offset="1" style="stop-color:#150E42"/>
				</linearGradient>
				<path style="fill:url(#SVGID_00000151515095456189322570000000475973849306178948_);" d="M2780.154,1946.641l-1.874-0.826
					c-2.385-1.051-3.406-3.891-2.208-6.206c4.641-8.969,13.69-29.52,2.001-34.314c-15.065-6.179-74.74-18.348-87.615-39.522
					c-12.374-20.35-1.41-46.62,15.068-54.092c1.103-0.5,2.402-0.103,2.968,0.967l1.373,2.598c0.94,1.779,3.567,1.509,4.126-0.423
					l0,0c0.537-1.855,3.005-2.215,4.028-0.577c3.958,6.335,14.642,16.605,43.216,21.879c40.608,7.494,67.456,23.928,68.124,51.989
					c0.042,1.783,1.939,2.774,3.461,1.846c2.999-1.827,7.797-2.685,14.209,2.707c11.152,9.378,6.589,33.703-17.859,53.712
					c-1.161,0.95-1.152,2.763,0.106,3.582c4.432,2.885,11.039,9.75-6.08,18.902c-17.708,9.466-30.931,8.689-36.022,7.849
					c-1.267-0.209-2.083-1.436-1.807-2.689l5.434-24.663c0.308-1.396-0.755-2.718-2.184-2.718H2780.154z"/>
				
					<linearGradient id="SVGID_00000178889339931281623600000003999611398806913448_" gradientUnits="userSpaceOnUse" x1="-5970.1108" y1="1896.5333" x2="-6105.0869" y2="1999.8107" gradientTransform="matrix(-1 0 0 1 -3242.584 0)">
					<stop  offset="0" style="stop-color:#F9B776"/>
					<stop  offset="1" style="stop-color:#F47960"/>
				</linearGradient>
				<path style="fill:url(#SVGID_00000178889339931281623600000003999611398806913448_);" d="M2779.132,1951.845
					c0,0,9.008-34.646,24.541-24.932c15.534,9.714-8.061,38.82-20.549,40.117L2779.132,1951.845z"/>
			</g>
			<path style="fill:#F8A570;" d="M2275.752,1972.053c1.143,0,2.294-0.378,3.25-1.153c2.211-1.798,2.546-5.046,0.748-7.256
				c-2.586-3.182-25.523-31.22-34.617-36.357c-2.596-1.465-3.887-2.775-4.3-3.621l23.806,4.764l14.668,12.594
				c2.163,1.853,5.418,1.601,7.271-0.554c1.855-2.16,1.606-5.418-0.554-7.271l-15.693-13.47c-0.672-0.574-1.478-0.972-2.346-1.143
				l-29.519-5.912c-2.05-0.428-4.124,0.448-5.29,2.175c-2.488,3.696-3.331,7.342-2.503,10.847c0.962,4.089,4.033,7.543,9.386,10.57
				c5.582,3.152,22.398,22.459,31.689,33.884C2272.769,1971.403,2274.254,1972.053,2275.752,1972.053z"/>
			
				<linearGradient id="SVGID_00000121987314269567222480000005375233885117409432_" gradientUnits="userSpaceOnUse" x1="-6003.5581" y1="2393.1541" x2="-6065.832" y2="2486.5647" gradientTransform="matrix(-1 0 0 1 -3242.584 0)">
				<stop  offset="0" style="stop-color:#F9B776"/>
				<stop  offset="1" style="stop-color:#F47960"/>
			</linearGradient>
			<path style="fill:url(#SVGID_00000121987314269567222480000005375233885117409432_);" d="M2823.988,2420.345
				c0,0-8.879-14.799-29.598-14.799s-44.397,38.477-44.397,38.477s32.558,14.799,44.397,26.638S2823.988,2444.023,2823.988,2420.345
				z"/>
		</g>
	</g>
</g>
</svg>
